<mxfile host="app.diagrams.net" modified="2024-07-22T15:12:48.338Z" agent="Mozilla/5.0 (Windows NT 10.0; Win64; x64) AppleWebKit/537.36 (KHTML, like Gecko) Chrome/126.0.0.0 Safari/537.36" etag="PSDvRHF-ptcMm_UEcLiQ" version="24.7.1" type="github">
  <diagram name="Page-1" id="qn3HoCgJh4jb8DqlgZtH">
    <mxGraphModel dx="798" dy="426" grid="1" gridSize="10" guides="1" tooltips="1" connect="1" arrows="1" fold="1" page="1" pageScale="1" pageWidth="850" pageHeight="1100" math="0" shadow="0">
      <root>
        <mxCell id="0" />
        <mxCell id="1" parent="0" />
        <mxCell id="D1uRvG54dfMyNx4tlK2V-1" value="" style="shape=image;verticalLabelPosition=bottom;labelBackgroundColor=default;verticalAlign=top;aspect=fixed;imageAspect=0;image=https://cdn.prod.website-files.com/63739957c8b86d3a88ae7085/663e4d152b855762a352980c_Untitled-4.png;" vertex="1" parent="1">
          <mxGeometry x="260" y="20" width="1200" height="492" as="geometry" />
        </mxCell>
        <mxCell id="D1uRvG54dfMyNx4tlK2V-3" value="" style="rounded=0;whiteSpace=wrap;html=1;" vertex="1" parent="1">
          <mxGeometry x="320" y="610" width="470" height="310" as="geometry" />
        </mxCell>
        <mxCell id="D1uRvG54dfMyNx4tlK2V-7" style="edgeStyle=orthogonalEdgeStyle;rounded=0;orthogonalLoop=1;jettySize=auto;html=1;entryX=0;entryY=0.5;entryDx=0;entryDy=0;" edge="1" parent="1" source="D1uRvG54dfMyNx4tlK2V-4" target="D1uRvG54dfMyNx4tlK2V-6">
          <mxGeometry relative="1" as="geometry" />
        </mxCell>
        <mxCell id="D1uRvG54dfMyNx4tlK2V-4" value="Dapp/User" style="whiteSpace=wrap;html=1;aspect=fixed;" vertex="1" parent="1">
          <mxGeometry x="360" y="720" width="80" height="80" as="geometry" />
        </mxCell>
        <mxCell id="D1uRvG54dfMyNx4tlK2V-5" value="Smart contract&lt;br&gt;Bytecode" style="ellipse;whiteSpace=wrap;html=1;aspect=fixed;" vertex="1" parent="1">
          <mxGeometry x="460" y="660" width="80" height="80" as="geometry" />
        </mxCell>
        <mxCell id="D1uRvG54dfMyNx4tlK2V-6" value="EOA" style="rhombus;whiteSpace=wrap;html=1;" vertex="1" parent="1">
          <mxGeometry x="540" y="700" width="120" height="120" as="geometry" />
        </mxCell>
        <mxCell id="D1uRvG54dfMyNx4tlK2V-8" value="UserOps" style="ellipse;whiteSpace=wrap;html=1;aspect=fixed;" vertex="1" parent="1">
          <mxGeometry x="460" y="780" width="80" height="80" as="geometry" />
        </mxCell>
        <mxCell id="D1uRvG54dfMyNx4tlK2V-9" value="Smart contract&lt;br&gt;Bytecode" style="ellipse;whiteSpace=wrap;html=1;aspect=fixed;" vertex="1" parent="1">
          <mxGeometry x="670" y="670" width="80" height="80" as="geometry" />
        </mxCell>
        <mxCell id="D1uRvG54dfMyNx4tlK2V-10" value="UserOps" style="ellipse;whiteSpace=wrap;html=1;aspect=fixed;" vertex="1" parent="1">
          <mxGeometry x="670" y="770" width="80" height="80" as="geometry" />
        </mxCell>
      </root>
    </mxGraphModel>
  </diagram>
</mxfile>
